<?xml version="1.0" encoding="UTF-8" standalone="no"?>
<svg
   xmlns:dc="http://purl.org/dc/elements/1.1/"
   xmlns:cc="http://creativecommons.org/ns#"
   xmlns:rdf="http://www.w3.org/1999/02/22-rdf-syntax-ns#"
   xmlns:svg="http://www.w3.org/2000/svg"
   xmlns="http://www.w3.org/2000/svg"
   xmlns:sodipodi="http://sodipodi.sourceforge.net/DTD/sodipodi-0.dtd"
   xmlns:inkscape="http://www.inkscape.org/namespaces/inkscape"
   aria-hidden="true"
   focusable="false"
   data-prefix="fas"
   data-icon="beer"
   class="svg-inline--fa fa-beer fa-w-14"
   role="img"
   viewBox="0 0 500 500"
   version="1.1"
   id="svg4"
   sodipodi:docname="mybeer.recipes.svg"
   inkscape:version="1.0.1 (3bc2e813f5, 2020-09-07)"
   width="500"
   height="500">
  <metadata
     id="metadata10">
    <rdf:RDF>
      <cc:Work
         rdf:about="">
        <dc:format>image/svg+xml</dc:format>
        <dc:type
           rdf:resource="http://purl.org/dc/dcmitype/StillImage" />
        <dc:title></dc:title>
      </cc:Work>
    </rdf:RDF>
  </metadata>
  <defs
     id="defs8" />
  <sodipodi:namedview
     pagecolor="#ffffff"
     bordercolor="#666666"
     borderopacity="1"
     objecttolerance="10"
     gridtolerance="10"
     guidetolerance="10"
     inkscape:pageopacity="0"
     inkscape:pageshadow="2"
     inkscape:window-width="1680"
     inkscape:window-height="993"
     id="namedview6"
     showgrid="false"
     inkscape:zoom="0.71777344"
     inkscape:cx="-110.08568"
     inkscape:cy="227.58355"
     inkscape:window-x="2048"
     inkscape:window-y="27"
     inkscape:window-maximized="1"
     inkscape:current-layer="svg4" />
  <path
     id="path16"
     style="fill:#673ab7;fill-opacity:1;fill-rule:evenodd;stroke-width:0.828594"
     d="M 249.99919,0 A 249.99984,249.99984 0 0 0 0,250.00081 249.99984,249.99984 0 0 0 249.99919,500 249.99984,249.99984 0 0 0 500,250.00081 249.99984,249.99984 0 0 0 249.99919,0 Z M 112.73737,101.74717 h 186.72339 c 9.09936,0 16.47641,7.37541 16.47641,16.47478 v 27.46013 h 32.95117 c 30.28225,0 54.91865,24.6364 54.91865,54.91864 v 88.46054 c 0,21.64351 -12.77135,41.32803 -32.53526,50.14937 l -55.33456,24.69762 v 28.90855 c 0,9.09936 -7.37705,16.47478 -16.47641,16.47478 H 112.73737 c -9.09937,0 -16.476403,-7.37542 -16.476403,-16.47478 V 118.22195 c 0,-9.09937 7.377033,-16.47478 16.476403,-16.47478 z m 60.41132,65.90236 c -6.06578,0 -10.98374,4.91795 -10.98374,10.98374 v 153.7722 c 0,6.06578 4.91796,10.98373 10.98374,10.98373 6.06579,0 10.98372,-4.91795 10.98372,-10.98373 v -153.7722 c 0,-6.06579 -4.91793,-10.98374 -10.98372,-10.98374 z m 65.90237,0 c -6.06579,0 -10.98372,4.91795 -10.98372,10.98374 v 153.7722 c 0,6.06578 4.91793,10.98373 10.98372,10.98373 6.06578,0 10.98374,-4.91795 10.98374,-10.98373 v -153.7722 c 0,-6.06579 -4.91796,-10.98374 -10.98374,-10.98374 z m 76.88611,21.96746 v 126.17937 l 37.42753,-16.70457 a 10.996123,10.996123 0 0 0 6.50738,-10.03053 v -88.46054 c 0,-6.05616 -4.92755,-10.98373 -10.98374,-10.98373 z" />
</svg>
