<?xml version="1.0" encoding="UTF-8" standalone="no"?>
<svg
   xmlns:dc="http://purl.org/dc/elements/1.1/"
   xmlns:cc="http://creativecommons.org/ns#"
   xmlns:rdf="http://www.w3.org/1999/02/22-rdf-syntax-ns#"
   xmlns:svg="http://www.w3.org/2000/svg"
   xmlns="http://www.w3.org/2000/svg"
   xmlns:sodipodi="http://sodipodi.sourceforge.net/DTD/sodipodi-0.dtd"
   xmlns:inkscape="http://www.inkscape.org/namespaces/inkscape"
   aria-hidden="true"
   focusable="false"
   data-prefix="fas"
   data-icon="beer"
   class="svg-inline--fa fa-beer fa-w-14"
   role="img"
   viewBox="0 0 500 500"
   version="1.1"
   id="svg4"
   sodipodi:docname="mybeer.recipes2.svg"
   inkscape:version="1.0.1 (3bc2e813f5, 2020-09-07)"
   width="500"
   height="500">
  <metadata
     id="metadata10">
    <rdf:RDF>
      <cc:Work
         rdf:about="">
        <dc:format>image/svg+xml</dc:format>
        <dc:type
           rdf:resource="http://purl.org/dc/dcmitype/StillImage" />
        <dc:title></dc:title>
      </cc:Work>
    </rdf:RDF>
  </metadata>
  <defs
     id="defs8" />
  <sodipodi:namedview
     pagecolor="#ffffff"
     bordercolor="#666666"
     borderopacity="1"
     objecttolerance="10"
     gridtolerance="10"
     guidetolerance="10"
     inkscape:pageopacity="0"
     inkscape:pageshadow="2"
     inkscape:window-width="3840"
     inkscape:window-height="1543"
     id="namedview6"
     showgrid="false"
     inkscape:zoom="0.71777344"
     inkscape:cx="-227.6997"
     inkscape:cy="330.68415"
     inkscape:window-x="0"
     inkscape:window-y="27"
     inkscape:window-maximized="1"
     inkscape:current-layer="svg4"
     inkscape:document-rotation="0" />
  <ellipse
     style="opacity:1;fill:#673ab7;fill-opacity:1;stroke:none;stroke-width:0.945721;stroke-opacity:1"
     id="path935"
     cx="250.57564"
     cy="250.33133"
     rx="232.06236"
     ry="231.98601" />
  <path
     id="rect929"
     style="opacity:1;fill:#ffffff;fill-opacity:1;stroke:none;stroke-width:0.816574;stroke-opacity:1"
     d="m 149.19616,112.00914 c -8.45231,0 -15.3049,6.85078 -15.3049,15.30308 V 382.3794 c 0,8.45229 6.85259,15.30308 15.3049,15.30308 h 173.44466 c 8.4523,0 15.3049,-6.85079 15.3049,-15.30308 v -26.85253 l 51.39914,-22.94102 c 18.35848,-8.19404 30.22156,-26.47973 30.22156,-46.58415 v -82.1686 c 0,-28.12885 -22.88386,-51.01452 -51.01271,-51.01452 h -30.60799 v -25.50636 c 0,-8.4523 -6.8526,-15.30308 -15.3049,-15.30308 z m 56.11435,61.21597 c 5.63444,0 10.20326,4.567 10.20326,10.20145 v 142.83849 c 0,5.63444 -4.56882,10.20145 -10.20326,10.20145 -5.63444,0 -10.20328,-4.56701 -10.20328,-10.20145 V 183.42656 c 0,-5.63445 4.56884,-10.20145 10.20328,-10.20145 z m 61.21597,0 c 5.63444,0 10.20327,4.567 10.20327,10.20145 v 142.83849 c 0,5.63444 -4.56883,10.20145 -10.20327,10.20145 -5.63445,0 -10.20326,-4.56701 -10.20326,-10.20145 V 183.42656 c 0,-5.63445 4.56881,-10.20145 10.20326,-10.20145 z m 71.41924,20.40472 h 30.60799 c 5.62553,0 10.20327,4.57776 10.20327,10.20327 v 82.1686 a 10.21418,10.21418 0 0 1 -6.04504,9.31792 l -34.76622,15.51717 z" />
</svg>
